<mxfile host="Electron" modified="2023-11-18T12:59:41.560Z" agent="Mozilla/5.0 (X11; Linux x86_64) AppleWebKit/537.36 (KHTML, like Gecko) draw.io/22.1.2 Chrome/114.0.5735.289 Electron/25.9.4 Safari/537.36" etag="V-ZI8NdRihBBRR7kkYo_" version="22.1.2" type="device">
  <diagram id="G4t1x3i_cumIOjZ8GDXV" name="Page-1">
    <mxGraphModel dx="2020" dy="1203" grid="1" gridSize="10" guides="1" tooltips="1" connect="1" arrows="1" fold="1" page="1" pageScale="1" pageWidth="850" pageHeight="1100" math="0" shadow="0">
      <root>
        <mxCell id="0" />
        <mxCell id="1" parent="0" />
        <mxCell id="GdDrrSZIIYJAX2H4kpIf-1" value="&lt;font style=&quot;font-size: 12px&quot;&gt;Observabile&lt;br&gt;services&lt;br&gt;&lt;/font&gt;" style="rounded=1;whiteSpace=wrap;html=1;gradientColor=#ffa500;fillColor=#ffcd28;strokeColor=#d79b00;" parent="1" vertex="1">
          <mxGeometry x="40" y="240" width="120" height="60" as="geometry" />
        </mxCell>
        <mxCell id="tjc-NoYRc2y_VS5g-BHh-2" value="OTel&lt;br&gt;collector" style="strokeWidth=2;html=1;shape=mxgraph.flowchart.direct_data;whiteSpace=wrap;gradientColor=#97d077;fillColor=#d5e8d4;strokeColor=#82b366;" vertex="1" parent="1">
          <mxGeometry x="305" y="230" width="120" height="80" as="geometry" />
        </mxCell>
        <mxCell id="tjc-NoYRc2y_VS5g-BHh-4" value="Push traces and logs&lt;br&gt;OTLP" style="edgeStyle=orthogonalEdgeStyle;rounded=0;orthogonalLoop=1;jettySize=auto;html=1;entryX=0;entryY=0.5;entryDx=0;entryDy=0;entryPerimeter=0;exitX=1;exitY=0.5;exitDx=0;exitDy=0;" edge="1" parent="1" source="GdDrrSZIIYJAX2H4kpIf-1" target="tjc-NoYRc2y_VS5g-BHh-2">
          <mxGeometry relative="1" as="geometry" />
        </mxCell>
        <mxCell id="tjc-NoYRc2y_VS5g-BHh-5" value="Push traces&lt;br&gt;OTLP" style="edgeStyle=orthogonalEdgeStyle;rounded=0;orthogonalLoop=1;jettySize=auto;html=1;entryX=0;entryY=0.5;entryDx=0;entryDy=0;" edge="1" parent="1" source="tjc-NoYRc2y_VS5g-BHh-2" target="tjc-NoYRc2y_VS5g-BHh-22">
          <mxGeometry relative="1" as="geometry">
            <mxPoint x="520" y="270" as="targetPoint" />
          </mxGeometry>
        </mxCell>
        <mxCell id="tjc-NoYRc2y_VS5g-BHh-8" value="Collect metrics&lt;br&gt;/metrics HTTP" style="edgeStyle=orthogonalEdgeStyle;rounded=0;orthogonalLoop=1;jettySize=auto;html=1;entryX=0;entryY=0.5;entryDx=0;entryDy=0;startArrow=classic;startFill=1;endArrow=none;endFill=0;exitX=0.5;exitY=0;exitDx=0;exitDy=0;" edge="1" parent="1" source="GdDrrSZIIYJAX2H4kpIf-1" target="tjc-NoYRc2y_VS5g-BHh-20">
          <mxGeometry x="0.2881" relative="1" as="geometry">
            <mxPoint x="520" y="70" as="targetPoint" />
            <Array as="points">
              <mxPoint x="100" y="70" />
              <mxPoint x="500" y="70" />
            </Array>
            <mxPoint as="offset" />
          </mxGeometry>
        </mxCell>
        <mxCell id="tjc-NoYRc2y_VS5g-BHh-11" value="Grafana" style="rounded=1;whiteSpace=wrap;html=1;fillColor=#e6d0de;gradientColor=#d5739d;strokeColor=#996185;" vertex="1" parent="1">
          <mxGeometry x="680" y="40" width="120" height="60" as="geometry" />
        </mxCell>
        <mxCell id="tjc-NoYRc2y_VS5g-BHh-12" value="" style="edgeStyle=orthogonalEdgeStyle;rounded=0;orthogonalLoop=1;jettySize=auto;html=1;entryX=1;entryY=0.5;entryDx=0;entryDy=0;" edge="1" parent="1" source="tjc-NoYRc2y_VS5g-BHh-11" target="tjc-NoYRc2y_VS5g-BHh-20">
          <mxGeometry relative="1" as="geometry">
            <mxPoint x="640" y="70" as="targetPoint" />
          </mxGeometry>
        </mxCell>
        <mxCell id="tjc-NoYRc2y_VS5g-BHh-14" style="edgeStyle=orthogonalEdgeStyle;rounded=0;orthogonalLoop=1;jettySize=auto;html=1;entryX=1;entryY=0.5;entryDx=0;entryDy=0;" edge="1" parent="1" source="tjc-NoYRc2y_VS5g-BHh-13" target="tjc-NoYRc2y_VS5g-BHh-22">
          <mxGeometry relative="1" as="geometry">
            <mxPoint x="640" y="270" as="targetPoint" />
          </mxGeometry>
        </mxCell>
        <mxCell id="tjc-NoYRc2y_VS5g-BHh-13" value="Jaeger UI" style="rounded=1;whiteSpace=wrap;html=1;fillColor=#e6d0de;gradientColor=#d5739d;strokeColor=#996185;" vertex="1" parent="1">
          <mxGeometry x="680" y="240" width="120" height="60" as="geometry" />
        </mxCell>
        <mxCell id="tjc-NoYRc2y_VS5g-BHh-15" value="The OTel collector instances:&lt;br&gt;- aggregate entries from multiple services&lt;br&gt;- buffer entries in memory&lt;br&gt;- process entries in batches&lt;br&gt;- export entries to the corresponding backend&lt;br&gt;- use agnostic OTLP protocol and compatible input and output technologies" style="shape=note;whiteSpace=wrap;html=1;backgroundOutline=1;darkOpacity=0.05;align=left;gradientColor=#b3b3b3;fillColor=#f5f5f5;strokeColor=#666666;" vertex="1" parent="1">
          <mxGeometry x="131" y="110" width="295" height="110" as="geometry" />
        </mxCell>
        <mxCell id="tjc-NoYRc2y_VS5g-BHh-17" value="OpenSearch&lt;br&gt;dashboard" style="rounded=1;whiteSpace=wrap;html=1;fillColor=#e6d0de;gradientColor=#d5739d;strokeColor=#996185;" vertex="1" parent="1">
          <mxGeometry x="680" y="120" width="120" height="60" as="geometry" />
        </mxCell>
        <mxCell id="tjc-NoYRc2y_VS5g-BHh-18" style="edgeStyle=orthogonalEdgeStyle;rounded=0;orthogonalLoop=1;jettySize=auto;html=1;entryX=1;entryY=0.5;entryDx=0;entryDy=0;" edge="1" parent="1" source="tjc-NoYRc2y_VS5g-BHh-17" target="tjc-NoYRc2y_VS5g-BHh-21">
          <mxGeometry relative="1" as="geometry">
            <mxPoint x="640" y="170" as="targetPoint" />
          </mxGeometry>
        </mxCell>
        <mxCell id="tjc-NoYRc2y_VS5g-BHh-19" value="Push logs&lt;br&gt;OTLP" style="edgeStyle=orthogonalEdgeStyle;rounded=0;orthogonalLoop=1;jettySize=auto;html=1;entryX=0;entryY=0.5;entryDx=0;entryDy=0;" edge="1" parent="1" source="tjc-NoYRc2y_VS5g-BHh-2" target="tjc-NoYRc2y_VS5g-BHh-21">
          <mxGeometry relative="1" as="geometry">
            <mxPoint x="520" y="170" as="targetPoint" />
            <Array as="points">
              <mxPoint x="460" y="250" />
              <mxPoint x="460" y="150" />
            </Array>
          </mxGeometry>
        </mxCell>
        <mxCell id="tjc-NoYRc2y_VS5g-BHh-20" value="Prometheus" style="rounded=1;whiteSpace=wrap;html=1;fillColor=#e6d0de;gradientColor=#d5739d;strokeColor=#996185;" vertex="1" parent="1">
          <mxGeometry x="520" y="40" width="120" height="60" as="geometry" />
        </mxCell>
        <mxCell id="tjc-NoYRc2y_VS5g-BHh-21" value="OpenSearch" style="rounded=1;whiteSpace=wrap;html=1;fillColor=#e6d0de;gradientColor=#d5739d;strokeColor=#996185;" vertex="1" parent="1">
          <mxGeometry x="520" y="120" width="120" height="60" as="geometry" />
        </mxCell>
        <mxCell id="tjc-NoYRc2y_VS5g-BHh-22" value="Jaeger" style="rounded=1;whiteSpace=wrap;html=1;fillColor=#e6d0de;gradientColor=#d5739d;strokeColor=#996185;" vertex="1" parent="1">
          <mxGeometry x="520" y="240" width="120" height="60" as="geometry" />
        </mxCell>
        <mxCell id="tjc-NoYRc2y_VS5g-BHh-24" value="/startupz /livez /readyz&lt;br&gt;HTTP" style="edgeStyle=orthogonalEdgeStyle;rounded=0;orthogonalLoop=1;jettySize=auto;html=1;entryX=0.75;entryY=1;entryDx=0;entryDy=0;" edge="1" parent="1" source="tjc-NoYRc2y_VS5g-BHh-23" target="GdDrrSZIIYJAX2H4kpIf-1">
          <mxGeometry x="-0.2879" relative="1" as="geometry">
            <mxPoint as="offset" />
          </mxGeometry>
        </mxCell>
        <mxCell id="tjc-NoYRc2y_VS5g-BHh-23" value="Deployment infrastructure" style="rounded=1;whiteSpace=wrap;html=1;gradientColor=#ea6b66;fillColor=#f8cecc;strokeColor=#b85450;" vertex="1" parent="1">
          <mxGeometry x="304" y="360" width="122" height="60" as="geometry" />
        </mxCell>
        <mxCell id="tjc-NoYRc2y_VS5g-BHh-25" value="Deployment infrastructure provides resilience&lt;br&gt;using the health endpoints&lt;br&gt;- knows when a service instances has initialized&lt;br&gt;- restarts service instances when they are not alive&lt;br&gt;- avoids routing traffic to service instances which are not ready to accept it" style="shape=note;whiteSpace=wrap;html=1;backgroundOutline=1;darkOpacity=0.05;align=left;gradientColor=#b3b3b3;fillColor=#f5f5f5;strokeColor=#666666;" vertex="1" parent="1">
          <mxGeometry x="440" y="330" width="300" height="90" as="geometry" />
        </mxCell>
        <mxCell id="tjc-NoYRc2y_VS5g-BHh-27" value="/healthz&lt;br&gt;HTTP" style="edgeStyle=orthogonalEdgeStyle;rounded=0;orthogonalLoop=1;jettySize=auto;html=1;entryX=0.25;entryY=1;entryDx=0;entryDy=0;" edge="1" parent="1" target="GdDrrSZIIYJAX2H4kpIf-1">
          <mxGeometry x="-0.1161" relative="1" as="geometry">
            <mxPoint x="70" y="390" as="sourcePoint" />
            <mxPoint as="offset" />
          </mxGeometry>
        </mxCell>
        <mxCell id="tjc-NoYRc2y_VS5g-BHh-26" value="Operator" style="shape=umlActor;verticalLabelPosition=bottom;verticalAlign=top;html=1;outlineConnect=0;" vertex="1" parent="1">
          <mxGeometry x="50" y="400" width="30" height="60" as="geometry" />
        </mxCell>
        <mxCell id="tjc-NoYRc2y_VS5g-BHh-28" value="Operators use /healthz endpoint to inspect&lt;br&gt;all health checks for a specific service instance" style="shape=note;whiteSpace=wrap;html=1;backgroundOutline=1;darkOpacity=0.05;align=left;gradientColor=#b3b3b3;fillColor=#f5f5f5;strokeColor=#666666;" vertex="1" parent="1">
          <mxGeometry x="100" y="440" width="300" height="40" as="geometry" />
        </mxCell>
      </root>
    </mxGraphModel>
  </diagram>
</mxfile>
